# xmcd
#
# Track frame offsets:
#	150
#	16430
#	35537
#	48817
#	64820
#	78845
#	92092
#	107155
#	121525
#	133542
#	143880
#	163910
#
# Disc length: 2457 seconds
#
# Revision: 3
# Processed by: cddbd v1.5.2PL0 Copyright (c) Steve Scherf et al.
# Submitted via: EasyCDDAExtractor 15.2.5.1
#
DISCID=9709970c
DTITLE=Marty Stuart and Fabulous Superlatives - Country Music
DYEAR=2003
DGENRE=Country
TTITLE0=A Satisfied Mind
TTITLE1=Fool For Love
TTITLE2=If There Ain't There Ought'a Be
TTITLE3=Here I Am
TTITLE4=Sundown In Nashville
TTITLE5=By George
TTITLE6=Farmer's Blues (With Merle Haggard)
TTITLE7=Wishful Thinkin'
TTITLE8=If You Wanted Me Around
TTITLE9=Too Much Mouth (At The End Of The Money)
TTITLE10=Tip Your Hat (Featuring Josh Graves and Earl Scruggs)
TTITLE11=Walls Of A Prison
EXTD=Marty Stuart and His Fabulous Superlatives - Country Music\\r\n\\r\n(c)20
EXTD=03 Sony Music - COLUMBIA\\r\nwww.sonynashville.com/MartyStuart/ConnecteD\\
EXTD=r\nupc 696998706323\\r\nKatalog: CK 87063\\r\n\\r\nProduced by Marty Stua
EXTD=rt and Justin Niebank
EXTT0=
EXTT1=
EXTT2=
EXTT3=
EXTT4=
EXTT5=
EXTT6=
EXTT7=
EXTT8=
EXTT9=
EXTT10=
EXTT11=
PLAYORDER=
